<?xml version="1.0" standalone="no"?>
<!DOCTYPE svg PUBLIC "-//W3C//DTD SVG 20010904//EN"
 "http://www.w3.org/TR/2001/REC-SVG-20010904/DTD/svg10.dtd">
<svg version="1.0" xmlns="http://www.w3.org/2000/svg"
 width="1024.000000pt" height="1024.000000pt" viewBox="0 0 1024.000000 1024.000000"
 preserveAspectRatio="xMidYMid meet">
<metadata>
Created by potrace 1.16, written by Peter Selinger 2001-2019
</metadata>
<g transform="translate(0.000000,1024.000000) scale(0.100000,-0.100000)"
fill="#000000" stroke="none">
<path d="M3924 6685 c-322 -70 -620 -350 -752 -706 l-27 -74 -3 -733 c-3 -711
-2 -735 18 -819 99 -417 470 -846 931 -1078 189 -96 455 -177 684 -211 228
-34 646 -20 805 26 49 14 90 54 90 89 0 70 -109 131 -431 240 -293 99 -393
138 -542 213 -345 172 -611 407 -790 696 -103 166 -155 292 -203 487 -30 125
-31 139 -5 123 15 -9 33 -8 87 6 38 10 75 18 82 19 9 0 12 9 8 26 -22 105 -38
277 -33 367 12 218 75 351 199 420 l53 29 775 5 c522 4 785 9 805 16 63 23
112 54 185 117 41 35 215 185 386 333 171 148 328 283 349 299 31 25 38 38 38
64 0 21 -7 39 -18 47 -27 20 -2600 19 -2691 -1z"/>
<path d="M4381 4580 c-86 -23 -195 -79 -199 -104 -8 -41 202 -258 354 -368
191 -136 356 -216 750 -363 296 -110 413 -167 489 -236 110 -102 151 -204 142
-357 l-6 -94 147 4 c130 5 158 9 242 36 288 95 505 311 570 568 18 71 20 112
20 506 l0 428 -282 0 c-187 0 -278 -4 -268 -10 8 -5 10 -10 4 -10 -16 0 -67
-77 -60 -89 4 -5 1 -13 -5 -17 -8 -5 -9 -3 -4 6 5 8 3 11 -6 8 -7 -2 -46 10
-85 28 -39 18 -110 45 -159 59 l-87 25 -742 -1 c-700 0 -745 -1 -815 -19z"/>
</g>
</svg>
